<svg fill="none" height="18" viewBox="0 0 122 18" width="122" xmlns="http://www.w3.org/2000/svg"><g fill="#102f36"><path d="m23.3928 12.3219c.673 0 1.0608-.0449 1.91-.2244l.2084 1.4326c-.657.1794-1.3877.2692-2.1216.2692-3.2689 0-4.2111-2.0447-4.2111-4.43547.0288-2.32989 1.4325-4.30084 4.1951-4.30084.7306 0 1.3588.08973 2.1215.28523l-.2852 1.41972c-.8076-.17947-1.2851-.20831-1.7915-.20831-1.7306.02884-2.5831 1.31397-2.6119 2.80741.0032 1.47416.5576 2.95486 2.5863 2.95486z"/><path d="m30.0816 5.06592c2.6888.01602 3.881 2.01582 3.881 4.35853 0 2.28505-1.0287 4.32965-3.897 4.34575-2.8074-.0289-3.881-2.0607-3.881-4.34575 0-2.34271 1.2082-4.32969 3.897-4.35853zm0 7.26848c1.7178-.016 2.269-1.4037 2.269-2.90995-.016-1.37486-.5961-2.92598-2.285-2.92598-1.6409.01602-2.285 1.5383-2.285 2.92598 0 1.56715.689 2.90995 2.301 2.90995z"/><path d="m45.0863 13.6196v-5.37442c0-1.35883-.5064-1.73059-1.3589-1.73059-.5832 0-1.2402.33009-1.8363.82043.0288.17947.0449.53841.0449.64096v5.64362h-1.6729v-5.43531c0-1.35883-.4039-1.68572-1.2531-1.68572-.5384 0-1.2851.35893-1.9261.83645v6.28458h-1.6569v-8.40616h1.6569v.71788c.5063-.40381 1.314-.8653 2.1953-.88133 1.1633-.01602 1.8363.38778 2.2113 1.01593.6858-.64096 1.7017-.9999 2.4773-1.01593 2.7337-.04486 2.7754 2.15043 2.7754 3.07662v5.49299z"/><path d="m58.2218 13.6196v-5.37442c0-1.35883-.5064-1.73059-1.3589-1.73059-.5832 0-1.2402.33009-1.8363.82043.0288.17947.0449.53841.0449.64096v5.64362h-1.673v-5.43531c0-1.35883-.4038-1.68572-1.253-1.68572-.5384 0-1.2852.35893-1.9261.83645v6.28458h-1.6569v-8.40616h1.6569v.71788c.5063-.40381 1.314-.8653 2.1953-.88133 1.1633-.01602 1.8363.38778 2.2113 1.01593.6858-.64096 1.7017-.9999 2.4773-1.01593 2.7337-.04486 2.7754 2.15043 2.7754 3.07662v5.49299z"/><path d="m67.6092 12.0813.2532 1.3589c-.7467.2531-1.7755.3749-2.5831.3749-3.3137 0-4.1213-2.2241-4.1213-4.44824s.987-4.28483 3.7624-4.28483c1.7178 0 3.1503 1.06079 3.1663 3.76244l-.016.88132h-5.2847c.0288 1.64091.9102 2.64081 2.567 2.64081.6602 0 1.3461-.077 2.2562-.2853zm-4.7463-3.64384h3.6887c-.0608-1.70175-.9101-2.04466-1.7017-2.04466-1.2563-.01282-1.8364.83645-1.987 2.04466z"/><path d="m74.1796 6.75199c-.4327-.10576-.8076-.11858-1.0736-.11858-1.0288-.01602-1.5672.49354-1.955.89735v6.09234h-1.6569v-8.40941h1.6569v.74672c.4327-.44868 1.0897-.83646 1.9421-.85248.343-.01603.9102.04486 1.3877.22433z"/><path d="m79.0278 12.3219c.673 0 1.0608-.0449 1.9101-.2244l.2083 1.4326c-.657.1794-1.3877.2692-2.1216.2692-3.2689 0-4.2111-2.0447-4.2111-4.43547.0288-2.32989 1.4325-4.30084 4.1951-4.30084.7307 0 1.3588.08973 2.1215.28523l-.2852 1.41972c-.8076-.17947-1.2851-.20831-1.7915-.20831-1.7306.02884-2.583 1.31397-2.6119 2.80741.0064 1.47416.5577 2.95486 2.5863 2.95486z"/><path d="m88.2709 12.0813.2531 1.3589c-.7467.2531-1.7754.3749-2.583.3749-3.3138 0-4.1214-2.2241-4.1214-4.44824s.9871-4.28483 3.7624-4.28483c1.7178 0 3.1503 1.06079 3.1664 3.76244l-.0161.88132h-5.2847c.0289 1.64091.9102 2.64081 2.5671 2.64081.6602 0 1.346-.077 2.2562-.2853zm-4.7464-3.64384h3.6888c-.0609-1.70175-.9102-2.04466-1.7018-2.04466-1.2563-.01282-1.8395.83645-1.987 2.04466z"/><path d="m94.3602 6.5882h-2.285v4.0765c0 .8493.1057 1.4486.971 1.5672.4775.0448.9711 0 1.4486-.0609l.1057 1.4325c-.4935.0898-1.1954.1058-1.4774.1058-1.9549-.0737-2.6888-1.0736-2.6888-2.644v-4.4771h-1.2082v-1.15052l1.2082-.1346v-1.95494h1.6409v1.8652h2.285z"/><path d="m99.1829 5.06592c2.6891.01602 3.8811 2.01582 3.8811 4.35853 0 2.28505-1.029 4.32965-3.8971 4.34575-2.8074-.0289-3.881-2.0607-3.881-4.34575 0-2.34271 1.2082-4.32969 3.897-4.35853zm0 7.26848c1.7181-.016 2.2691-1.4037 2.2691-2.90995-.016-1.37486-.596-2.92598-2.2851-2.92598-1.6408.01602-2.285 1.5383-2.285 2.92598.0032 1.56715.689 2.90995 2.301 2.90995z"/><path d="m108.108 5.06592c2.689.01602 3.881 2.01582 3.881 4.35853 0 2.28505-1.028 4.32965-3.897 4.34575-2.807-.0289-3.881-2.0607-3.881-4.34575.004-2.34271 1.212-4.32969 3.897-4.35853zm0 7.26848c1.718-.016 2.269-1.4037 2.269-2.90995-.016-1.37486-.596-2.92598-2.285-2.92598-1.64.01602-2.285 1.5383-2.285 2.92598.004 1.56715.689 2.90995 2.301 2.90995z"/><path d="m113.303 13.6198v-11.40593h1.596v11.40593z"/><path d="m116.588 11.9916c.939.2403 1.82.3589 2.375.3589.657 0 1.33-.1346 1.374-.9262.045-.8365-.82-1.0896-1.807-1.50626-1.119-.46149-2.33-1.08963-2.298-2.64396.029-.77556.494-2.29784 2.971-2.22413.747.01602 1.641.1346 2.388.33009l-.283 1.37486c-.881-.20831-1.538-.29804-2.179-.31407-.718 0-1.269.22434-1.298.89735-.016.56725.433.86529 1.539 1.31397 1.118.46149 2.701 1.06079 2.628 2.82345-.045 1.1185-.776 2.3427-3.032 2.3138-.718-.016-1.865-.1057-2.718-.4038z"/></g><path d="m.211517 13.4337c-.1281921.0609-.211517.1891-.211517.3333s.0833249.2724.211517.3333l7.114663 3.333c.09615.0448.1987.0673.30125.0673v-7.4352c-.10575 0-.21151.0225-.31086.0673z" fill="#f27923"/><path d="m7.62842 10.0625v7.4351c.10896.0033.22113-.0224.32368-.0673l7.0954-3.3201c.1282-.0609.2116-.1891.2116-.3333 0-.141-.0834-.2724-.2116-.3333l-7.10822-3.3106c-.09934-.0449-.2051-.0705-.31086-.0705z" fill="#f5a730"/><path d="m0 3.70395c0 .14422.0833249.27241.211517.3333l7.114663 3.32979c.09615.04487.1987.0673.30125.07051.08974 0 .17947-.01282.266-.04487.0673-.03205.05448-.02564.1987-.09294.7339-.33971.24677-.11537 6.95127-3.25287.1281-.06089.2115-.18909.2115-.3333 0-.14102-.0834-.27241-.2115-.3333l-7.1051-3.3105655c-.19549-.0929393-.42303-.0929393-.61853 0l-7.108253 3.3009455c-.1281921.06089-.211517.19229-.211517.3333z" fill="#20ad92"/><path d="m7.62743 7.85396v2.20814c-.10575 0-.21151.0224-.31086.0673l-7.105053 3.3041c-.1281921.0609-.211517.1891-.211517.3333v-9.8163-.24677c0 .14422.0833249.27241.211517.3333l7.114663 3.32979c.09615.04487.1987.06731.30125.07051.08974 0 .17947-.01282.266-.04487l-.01282.00641c-.22113.09935-.25318.20191-.25318.45509z" fill="#d0d1d1"/></svg>