<?xml version="1.0" encoding="utf-8"?>
<!-- Generator: Adobe Illustrator 27.6.1, SVG Export Plug-In . SVG Version: 6.00 Build 0)  -->
<svg version="1.1" id="katman_1" xmlns="http://www.w3.org/2000/svg" xmlns:xlink="http://www.w3.org/1999/xlink" x="0px" y="0px"
	 viewBox="0 0 1492.3 311.5" style="enable-background:new 0 0 1492.3 311.5;" xml:space="preserve">
<style type="text/css">
	.st0{fill:#0D9DDA;}
	.st1{fill:#014486;}
	.st2{fill-rule:evenodd;clip-rule:evenodd;fill:#014486;}
</style>
<path class="st0" d="M180.7,45.3c12.8-13,30.5-21.1,50.1-21.1c26.1,0,48.9,14.3,61,35.5c10.5-4.6,22.2-7.2,34.5-7.2
	c47.1,0,85.2,37.8,85.2,84.4c0,46.6-38.2,84.4-85.2,84.4c-5.8,0-11.4-0.6-16.8-1.6c-10.7,18.7-31,31.3-54.4,31.3
	c-9.8,0-19-2.2-27.2-6.2c-10.8,25-36,42.5-65.4,42.5c-29.4,0-56.7-19-66.7-45.7c-4.4,0.9-8.9,1.4-13.6,1.4c-36.4,0-66-29.3-66-65.5
	c0-24.2,13.3-45.4,33-56.7c-4.1-9.2-6.3-19.3-6.3-29.9c0-41.6,34.4-75.3,76.8-75.3C144.5,15.7,166.7,27.3,180.7,45.3z"/>
<path class="st1" d="M473.5,196.5c-0.8,2.2,0.3,2.6,0.6,3c2.5,1.8,5,3.1,7.5,4.5c13.4,7.1,26.1,9.2,39.4,9.2
	c27,0,43.8-14.4,43.8-37.5v-0.4c0-21.4-18.9-29.2-36.7-34.8l-2.3-0.7c-13.4-4.4-25-8.1-25-16.9v-0.4c0-7.5,6.8-13.1,17.2-13.1
	c11.7,0,25.4,3.9,34.3,8.8c0,0,2.6,1.7,3.6-0.8c0.5-1.4,5-13.5,5.5-14.8c0.5-1.4-0.4-2.5-1.3-3C549.9,93.2,535.8,89,521.3,89h-2.7
	c-24.7,0-42,14.9-42,36.3v0.4c0,22.5,19.1,29.9,36.8,35l2.9,0.9c13,4,24.2,7.4,24.2,16.5v0.4c0,8.4-7.3,14.6-19,14.6
	c-4.5,0-19.1-0.1-34.8-10c-1.9-1.1-3-1.9-4.4-2.8c-0.8-0.5-2.7-1.3-3.5,1.2l-5.3,14.8L473.5,196.5z"/>
<path class="st1" d="M868.7,196.5c-0.8,2.2,0.3,2.6,0.6,3c2.5,1.8,5,3.1,7.5,4.5c13.4,7.1,26.1,9.2,39.4,9.2
	c27,0,43.8-14.4,43.8-37.5v-0.4c0-21.4-18.9-29.2-36.7-34.8l-2.3-0.7c-13.4-4.4-25-8.1-25-16.9v-0.4c0-7.5,6.8-13.1,17.2-13.1
	c11.6,0,25.4,3.9,34.3,8.8c0,0,2.6,1.7,3.6-0.8c0.5-1.4,5-13.5,5.5-14.8c0.5-1.4-0.4-2.5-1.3-3C945.1,93.2,931.1,89,916.5,89h-2.7
	c-24.7,0-42,14.9-42,36.3v0.4c0,22.5,19.1,29.9,36.8,35l2.9,0.9c13,4,24.2,7.4,24.2,16.5v0.4c0,8.4-7.3,14.6-19,14.6
	c-4.5,0-19.1-0.1-34.8-10c-1.9-1.1-3-1.9-4.4-2.8c-0.5-0.3-2.8-1.2-3.5,1.2l-5.3,14.8L868.7,196.5z"/>
<path class="st1" d="M1161.1,127c-2.2-7.5-5.7-14.1-10.3-19.6s-10.4-10-17.3-13.2c-6.9-3.2-15-4.8-24.1-4.8s-17.3,1.6-24.2,4.8
	c-6.9,3.2-12.7,7.6-17.3,13.2c-4.6,5.5-8,12.1-10.3,19.6c-2.2,7.4-3.3,15.6-3.3,24.2c0,8.7,1.1,16.8,3.3,24.2
	c2.2,7.5,5.7,14.1,10.3,19.6c4.6,5.5,10.4,9.9,17.3,13.1c6.9,3.1,15,4.7,24.2,4.7s17.3-1.6,24.1-4.7c6.9-3.1,12.7-7.5,17.3-13.1
	c4.6-5.5,8-12.1,10.3-19.6c2.2-7.4,3.3-15.6,3.3-24.2C1164.4,142.6,1163.3,134.4,1161.1,127z M1138.5,151.2
	c0,13.1-2.4,23.4-7.2,30.7c-4.7,7.2-11.9,10.7-22,10.7c-10,0-17.2-3.5-21.9-10.7c-4.7-7.3-7.1-17.6-7.1-30.7
	c0-13.1,2.4-23.3,7.1-30.5c4.7-7.2,11.8-10.6,21.9-10.6c10,0,17.2,3.5,22,10.6C1136.1,127.9,1138.5,138.2,1138.5,151.2z"/>
<path class="st2" d="M1346.1,189c-0.7-2.2-2.9-1.4-2.9-1.4c-3.3,1.3-6.8,2.4-10.5,3c-3.8,0.6-7.9,0.9-12.3,0.9
	c-10.9,0-19.6-3.2-25.8-9.7c-6.2-6.4-9.7-16.8-9.7-30.8c0-12.8,3.1-22.3,8.7-29.7c5.5-7.3,13.9-11,25-11c9.3,0,16.4,1.1,23.8,3.4
	c0,0,1.7,0.8,2.6-1.5c2-5.5,3.4-9.4,5.6-15.4c0.6-1.7-0.9-2.5-1.4-2.7c-2.9-1.2-9.8-3-15-3.8c-4.9-0.7-10.5-1.1-16.9-1.1
	c-9.5,0-17.9,1.6-25.1,4.8c-7.2,3.2-13.3,7.6-18.1,13.2c-4.8,5.5-8.5,12.1-11,19.6c-2.5,7.4-3.7,15.6-3.7,24.3
	c0,18.7,5,33.8,15,44.9c10,11.1,25,16.7,44.5,16.7c11.5,0,23.4-2.3,31.9-5.7c0,0,1.6-0.8,0.9-2.7L1346.1,189L1346.1,189z"/>
<path class="st2" d="M1461.4,122.7c-1.9-7.2-6.6-14.5-9.8-17.8c-4.9-5.3-9.7-9-14.5-11c-6.2-2.7-13.7-4.4-21.9-4.4
	c-9.5,0-18.2,1.6-25.2,4.9c-7,3.3-12.9,7.8-17.6,13.4c-4.6,5.6-8.1,12.2-10.4,19.8c-2.2,7.5-3.3,15.7-3.3,24.3
	c0,8.6,1.2,17,3.4,24.4c2.3,7.4,6,14,11.1,19.4c5,5.5,11.5,9.7,19.2,12.7c7.7,2.9,17,4.5,27.7,4.5c22,0,33.7-5,38.4-7.6
	c0.9-0.5,1.6-1.3,0.6-3.6l-5-14c-0.8-2.1-2.9-1.4-2.9-1.4c-5.5,2-13.2,5.7-31.3,5.7c-11.8,0-20.6-3.5-26.1-9
	c-5.6-5.6-8.4-13.8-8.8-25.4h76.2c0,0,2,0,2.2-1.9C1463.7,154.8,1466.2,139.9,1461.4,122.7L1461.4,122.7z M1385.5,138.7
	c1.1-7.3,3.1-13.3,6.1-18c4.7-7.2,11.8-11.1,21.8-11.1c10,0,16.6,3.9,21.4,11.1c3.1,4.7,4.5,11,5,18H1385.5L1385.5,138.7z"/>
<path class="st2" d="M850.5,122.7c-1.9-7.2-6.6-14.5-9.8-17.8c-4.9-5.3-9.7-9-14.5-11c-6.2-2.7-13.7-4.4-21.9-4.4
	c-9.5,0-18.2,1.6-25.2,4.9s-12.9,7.8-17.6,13.4c-4.6,5.6-8.1,12.2-10.3,19.8c-2.2,7.5-3.3,15.7-3.3,24.3c0,8.6,1.2,17,3.5,24.4
	c2.3,7.4,6,14,11,19.4c5,5.5,11.5,9.7,19.2,12.7c7.7,2.9,17,4.5,27.7,4.5c22,0,33.7-5,38.4-7.6c0.8-0.5,1.6-1.3,0.6-3.6l-5-14
	c-0.8-2.1-2.9-1.4-2.9-1.4c-5.5,2-13.2,5.7-31.3,5.7c-11.8,0-20.6-3.5-26.1-9c-5.6-5.6-8.4-13.8-8.8-25.4h76.3c0,0,2,0,2.2-1.9
	C852.9,154.8,855.4,139.9,850.5,122.7z M774.6,138.7c1.1-7.3,3-13.3,6.1-18c4.7-7.2,11.8-11.1,21.8-11.1c10,0,16.6,3.9,21.4,11.1
	c3.1,4.7,4.5,11,5,18H774.6L774.6,138.7z"/>
<path class="st1" d="M640.1,135c-3.1-0.2-7.1-0.3-11.9-0.3c-6.5,0-12.9,0.8-18.8,2.4c-5.9,1.6-11.3,4.1-15.9,7.4
	c-4.6,3.3-8.4,7.5-11.1,12.6c-2.7,5-4.1,10.9-4.1,17.6s1.2,12.6,3.5,17.4c2.3,4.8,5.7,8.8,10,11.9c4.3,3.1,9.5,5.4,15.5,6.7
	c6,1.4,12.8,2.1,20.2,2.1c7.8,0,15.6-0.7,23.2-1.9c7.5-1.3,16.7-3.1,19.2-3.7c2.6-0.6,5.4-1.4,5.4-1.4c1.9-0.5,1.7-2.5,1.7-2.5
	v-69.8c0-15.3-4.1-26.6-12.2-33.7c-8-7-19.8-10.5-35.1-10.5c-5.7,0-14.9,0.8-20.5,1.9c0,0-16.6,3.2-23.5,8.6c0,0-1.5,0.9-0.7,3
	l5.4,14.5c0.7,1.9,2.5,1.3,2.5,1.3s0.6-0.2,1.3-0.6c14.7-8,33.2-7.7,33.2-7.7c8.2,0,14.6,1.6,18.9,4.9c4.2,3.2,6.3,8,6.3,18.2v3.2
	C646.2,135.7,640.1,135.1,640.1,135L640.1,135z M609.7,188.7c-3-2.4-3.4-3-4.4-4.5c-1.5-2.3-2.3-5.7-2.3-9.9
	c0-6.7,2.2-11.5,6.8-14.7c0,0,6.6-5.7,22.1-5.5c10.9,0.1,20.7,1.7,20.7,1.7v34.7c0,0-9.7,2.1-20.6,2.8
	C616.6,194,609.7,188.7,609.7,188.7L609.7,188.7z"/>
<path class="st2" d="M1255.3,95.7c0.6-1.7-0.6-2.6-1.2-2.8c-1.3-0.5-7.8-1.8-12.8-2.2c-9.6-0.6-14.9,1-19.7,3.1
	c-4.7,2.1-10,5.6-12.9,9.5v-9.3c0-1.3-0.9-2.3-2.2-2.3h-19.5c-1.3,0-2.2,1-2.2,2.3v113.8c0,1.3,1,2.3,2.3,2.3h20.1
	c1.3,0,2.3-1,2.3-2.3v-56.8c0-7.6,0.9-15.2,2.5-20c1.6-4.7,3.9-8.5,6.7-11.2c2.8-2.7,5.9-4.6,9.4-5.7c3.5-1.1,7.4-1.5,10.3-1.5
	c4,0,8.4,1,8.4,1c1.4,0.1,2.3-0.7,2.8-2.1C1251,108.2,1254.7,97.8,1255.3,95.7L1255.3,95.7z"/>
<path class="st2" d="M1067.2,43c-2.4-0.8-4.6-1.3-7.5-1.8c-2.9-0.5-6.4-0.8-10.3-0.8c-13.8,0-24.7,3.9-32.3,11.6
	c-7.6,7.6-12.8,19.3-15.3,34.6l-0.9,5.2h-17.3c0,0-2.1-0.1-2.6,2.2l-2.9,15.9c-0.2,1.5,0.4,2.5,2.5,2.5h16.8l-17.1,95.5
	c-1.4,7.7-2.9,14-4.5,18.8c-1.7,4.7-3.3,8.3-5.3,10.8c-1.9,2.5-3.8,4.3-7,5.4c-2.6,0.9-5.7,1.3-9,1.3c-1.8,0-4.3-0.3-6.1-0.7
	c-1.8-0.3-2.8-0.8-4.1-1.4c0,0-2-0.8-2.8,1.2c-0.6,1.6-5.1,14-5.7,15.5c-0.5,1.5,0.2,2.7,1.2,3c2.2,0.8,3.9,1.3,7,2
	c4.3,1,7.8,1.1,11.2,1.1c7,0,13.4-1,18.7-2.9c5.4-1.9,10-5.3,14.1-9.8c4.4-4.9,7.3-10.1,9.9-17.1c2.7-7,4.9-15.6,6.7-25.6l17.2-97.2
	h25.1c0,0,2.1,0.1,2.6-2.2l2.9-15.9c0.2-1.5-0.4-2.5-2.5-2.5h-24.4c0.1-0.5,1.2-9.1,4-17.2c1.2-3.4,3.4-6.2,5.4-8.1
	c1.9-1.9,4-3.2,6.4-4c2.4-0.8,5.2-1.2,8.2-1.2c2.3,0,4.5,0.3,6.3,0.6c2.4,0.5,3.3,0.8,3.9,1c2.5,0.8,2.8,0,3.3-1.2l5.9-16
	C1069.2,44,1067.8,43.3,1067.2,43L1067.2,43z"/>
<path class="st2" d="M726.5,208c0,1.3-0.9,2.3-2.2,2.3h-20.2c-1.3,0-2.2-1-2.2-2.3V45.2c0-1.3,0.9-2.3,2.2-2.3h20.2
	c1.3,0,2.2,1,2.2,2.3V208z"/>
</svg>
