<svg xmlns="http://www.w3.org/2000/svg" viewBox="0 0 127 26" role="img"><path fill="currentColor" fill-rule="nonzero" d="M98.33 9.854c-1.607 0-2.925.56-3.862 1.629l.181-.942c.058-.299-.146-.55-.444-.55-.298 0-.6.251-.656.55l-2.776 14.412c-.057.299.146.55.444.55.298 0 .6-.251.657-.55l1.03-5.353c.38.685 1.26 1.623 3.237 1.623 1.546 0 2.842-.475 3.855-1.414 1.044-.968 1.757-2.408 2.118-4.282.361-1.873.202-3.31-.471-4.272-.65-.929-1.766-1.4-3.313-1.4zm-1.995 10.36c-2.35 0-3.281-1.62-2.69-4.686.596-3.095 2.084-4.664 4.423-4.664 2.557 0 3.505 1.526 2.9 4.664-.616 3.197-2.088 4.687-4.633 4.687zm25.95-5.295c-1.395-.517-2.713-1.006-2.462-2.306.126-.653.656-1.75 2.792-1.75 1.2 0 1.958.332 2.615 1.146.123.152.263.152.323.152a.651.651 0 0 0 .602-.505.454.454 0 0 0-.065-.353l-.008-.013c-.667-.953-1.768-1.436-3.272-1.436-2.193 0-3.759 1.057-4.088 2.759-.392 2.037 1.412 2.72 3.004 3.32 1.375.52 2.675 1.012 2.434 2.258-.34 1.76-2.184 2.023-3.255 2.023-1.475 0-2.386-.401-3.046-1.342l-.007-.009a.397.397 0 0 0-.323-.152.652.652 0 0 0-.602.505.453.453 0 0 0 .065.353c.44.823 1.76 1.655 3.72 1.655 2.482 0 4.183-1.134 4.549-3.033.39-2.024-1.399-2.687-2.977-3.272zm-3.328-7.91h-1.161l.224-1.162c.057-.299-.146-.55-.445-.55-.298 0-.599.251-.656.55l-.224 1.161h-1.161c-.299 0-.599.252-.656.55-.058.299.146.55.444.55h1.161l-.223 1.162c-.058.299.145.55.444.55.298 0 .599-.251.656-.55l.223-1.161h1.162c.297 0 .598-.252.656-.55a.445.445 0 0 0-.444-.55zM26.745 18.193c.564.294 1.58.7 2.55.677.88 0 1.355-.474 1.355-1.06 0-.565-.339-.948-1.287-1.49-1.173-.677-2.054-1.625-2.054-2.866 0-2.19 1.874-3.747 4.604-3.747 1.197 0 2.122.225 2.618.52l-.722 2.211a4.664 4.664 0 0 0-1.94-.429c-.88 0-1.445.407-1.445 1.038 0 .496.406.858 1.196 1.287 1.22.7 2.235 1.648 2.235 2.98 0 2.482-2.009 3.882-4.808 3.86-1.286-.023-2.483-.362-3.069-.768l.767-2.213zm7.742 2.919l3.024-15.804h3.115l-1.196 6.126.044-.04c.835-.993 1.919-1.679 3.295-1.679 1.626 0 2.55 1.046 2.55 2.806 0 .542-.09 1.418-.225 2.095l-1.219 6.496h-3.114l1.173-6.3c.09-.43.136-.985.136-1.413 0-.677-.27-1.169-.97-1.169-.994 0-2.055 1.327-2.461 3.38L37.6 21.114h-3.113zm22.097-7.072c0 3.86-2.484 7.156-6.162 7.156-2.8 0-4.288-1.942-4.288-4.357 0-3.77 2.483-7.155 6.229-7.155 2.912 0 4.22 2.122 4.22 4.356zm-7.268 2.732c0 1.128.452 2.03 1.513 2.03 1.647 0 2.573-2.934 2.573-4.852 0-.925-.362-1.873-1.467-1.873-1.694 0-2.619 2.91-2.619 4.695zm6.523 8.73l2.167-11.39c.249-1.287.496-2.951.632-4.123h2.754l-.181 1.756h.045c.835-1.17 2.054-1.956 3.295-1.956 2.279 0 3.205 1.82 3.205 3.92 0 3.792-2.392 7.527-6.049 7.527-.767 0-1.467-.125-1.828-.417h-.068l-.858 4.682h-3.114zm4.447-7.106c.339.27.722.452 1.287.452 1.738 0 2.935-2.867 2.935-4.876 0-.834-.294-1.715-1.242-1.715-1.083 0-2.099 1.287-2.46 3.228l-.52 2.911zm7.561 2.716l2.1-11.121h3.137l-2.122 11.12h-3.115zM71.888 8.82c-.88 0-1.467-.753-1.467-1.678 0-1.016.79-1.866 1.783-1.866.948 0 1.557.745 1.557 1.648-.022 1.15-.857 1.897-1.827 1.897l-.046-.001zm1.782 12.292l1.648-8.78h-1.444l.451-2.341h1.445l.09-.56c.249-1.31.744-2.639 1.805-3.542.835-.722 1.941-1.048 3.048-1.048.767 0 1.332.108 1.692.266l-.609 2.435a3.059 3.059 0 0 0-.993-.16c-1.038 0-1.67.988-1.85 2.05l-.114.559h2.167l-.43 2.34h-2.143l-1.648 8.78H73.67zM84.866 9.992l.496 4.978a61.08 61.08 0 0 1 .271 2.63h.045c.249-.585.474-1.457.926-2.653L88.5 9.992h3.25l-3.815 8.142c-1.354 2.799-2.663 4.838-4.085 6.17-1.106 1.038-2.415 1.55-3.047 1.685l-.858-2.644c.52-.181 1.173-.454 1.76-.882.722-.496 1.332-1.175 1.693-1.874.09-.158.113-.265.068-.49L81.592 9.993l3.274-.001zm31.543 1.045c-.298 0-.599.253-.656.55l-1.052 5.464c-.57 2.783-2.28 3.163-3.882 3.163-2.886 0-2.959-1.644-2.65-3.252l1.238-6.42c.057-.3-.146-.551-.445-.551-.298 0-.599.252-.656.55l-1.237 6.421c-.249 1.294-.16 2.26.273 2.952.542.869 1.647 1.309 3.282 1.309s2.909-.44 3.787-1.309c.7-.692 1.16-1.658 1.41-2.952l1.034-5.374c.056-.298-.147-.55-.446-.55zm-9.943-5.71c-.298 0-.6.252-.657.55l-2.823 14.66c-.057.298.146.55.445.55.298 0 .599-.252.656-.55l2.823-14.66c.058-.298-.146-.55-.444-.55zM15.32 3.009l-.76.236a5.3 5.3 0 0 0-.364-.894c-.539-1.028-1.328-1.572-2.28-1.574h-.004c-.066 0-.132.006-.198.012a1.75 1.75 0 0 0-.087-.099c-.415-.444-.948-.66-1.585-.642C8.81.084 7.584.973 6.59 2.552 5.89 3.663 5.36 5.059 5.208 6.14l-2.424.75c-.713.224-.736.247-.83.92-.07.508-1.937 14.946-1.937 14.946l15.49 2.68V2.976a.939.939 0 0 0-.187.032zm-3.577 1.108l-2.613.81c.253-.968.732-1.93 1.32-2.561.218-.235.524-.497.886-.646.342.71.415 1.717.407 2.397zM10.065.867a1.26 1.26 0 0 1 .74.195 3.572 3.572 0 0 0-.955.744c-.782.839-1.382 2.142-1.62 3.398l-2.146.664c.423-1.977 2.08-4.945 3.981-5zM7.67 12.136c.083 1.318 3.55 1.605 3.745 4.692.153 2.429-1.288 4.09-3.365 4.221-2.492.157-3.864-1.313-3.864-1.313l.528-2.247s1.38 1.042 2.486.972c.722-.046.98-.633.954-1.049-.108-1.719-2.93-1.618-3.11-4.442-.15-2.377 1.411-4.786 4.856-5.003 1.327-.084 2.007.254 2.007.254l-.788 2.947s-.879-.4-1.92-.335c-1.528.098-1.545 1.061-1.529 1.303zm4.891-8.272c-.01-.624-.084-1.49-.374-2.24.934.177 1.394 1.234 1.588 1.864l-1.214.376zm3.459 21.51l6.426-1.597S19.679 5.07 19.662 4.941a.247.247 0 0 0-.223-.208c-.092-.007-1.902-.035-1.902-.035s-1.103-1.07-1.517-1.476v22.152z"></path></svg>